<svg width="28" height="52" viewBox="0 0 28 52" fill="none" xmlns="http://www.w3.org/2000/svg">
<path fill-rule="evenodd" clip-rule="evenodd" d="M27.4126 0.587507C27.5988 0.773267 27.7465 0.993944 27.8473 1.2369C27.9481 1.47985 28 1.7403 28 2.00334C28 2.26638 27.9481 2.52683 27.8473 2.76979C27.7465 3.01274 27.5988 3.23341 27.4126 3.41917L4.83034 26.0005L27.4126 48.5819C27.788 48.9574 27.999 49.4667 27.999 49.9977C27.999 50.5288 27.788 51.038 27.4126 51.4135C27.0371 51.789 26.5279 52 25.9969 52C25.466 52 24.9567 51.789 24.5813 51.4135L0.587424 27.4164C0.401219 27.2306 0.253484 27.0099 0.152684 26.767C0.0518843 26.524 0 26.2636 0 26.0005C0 25.7375 0.0518843 25.477 0.152684 25.2341C0.253484 24.9911 0.401219 24.7705 0.587424 24.5847L24.5813 0.587507C24.767 0.401275 24.9877 0.253521 25.2306 0.152707C25.4735 0.0518933 25.7339 0 25.9969 0C26.2599 0 26.5204 0.0518933 26.7633 0.152707C27.0062 0.253521 27.2268 0.401275 27.4126 0.587507Z" fill="#F19319"/>
</svg>
