<svg width="99" height="132" viewBox="0 0 99 132" fill="none" xmlns="http://www.w3.org/2000/svg">
<path fill-rule="evenodd" clip-rule="evenodd" d="M1.10442e-06 127.872V16.4996C1.10442e-06 12.1237 1.73839 7.92691 4.83274 4.83263C7.92709 1.73835 12.1239 0 16.5 0H82.5C86.8761 0 91.0729 1.73835 94.1673 4.83263C97.2616 7.92691 99 12.1237 99 16.4996V127.872C99.0005 128.588 98.8145 129.292 98.4603 129.915C98.106 130.538 97.5957 131.057 96.9797 131.423C96.3636 131.788 95.6629 131.987 94.9467 131.999C94.2305 132.012 93.5234 131.838 92.895 131.494L49.5 107.817L6.105 131.494C5.47659 131.838 4.76948 132.012 4.05327 131.999C3.33705 131.987 2.63643 131.788 2.02036 131.423C1.40429 131.057 0.894008 130.538 0.539753 129.915C0.185497 129.292 -0.000522999 128.588 1.10442e-06 127.872ZM53.625 37.1242C53.625 36.0302 53.1904 34.981 52.4168 34.2074C51.6432 33.4338 50.594 32.9992 49.5 32.9992C48.406 32.9992 47.3568 33.4338 46.5832 34.2074C45.8096 34.981 45.375 36.0302 45.375 37.1242V49.4989H33C31.906 49.4989 30.8568 49.9335 30.0832 50.707C29.3096 51.4806 28.875 52.5298 28.875 53.6238C28.875 54.7178 29.3096 55.767 30.0832 56.5405C30.8568 57.3141 31.906 57.7487 33 57.7487H45.375V70.1234C45.375 71.2174 45.8096 72.2666 46.5832 73.0402C47.3568 73.8137 48.406 74.2483 49.5 74.2483C50.594 74.2483 51.6432 73.8137 52.4168 73.0402C53.1904 72.2666 53.625 71.2174 53.625 70.1234V57.7487H66C67.094 57.7487 68.1432 57.3141 68.9168 56.5405C69.6904 55.767 70.125 54.7178 70.125 53.6238C70.125 52.5298 69.6904 51.4806 68.9168 50.707C68.1432 49.9335 67.094 49.4989 66 49.4989H53.625V37.1242Z" fill="#FC6736"/>
</svg>
