<svg width="67" height="67" viewBox="0 0 67 67" fill="none" xmlns="http://www.w3.org/2000/svg">
<g filter="url(#filter0_d_2246_1772)">
<path d="M63 29.5C63 37.3239 59.892 44.8273 54.3596 50.3596C48.8273 55.892 41.3239 59 33.5 59C25.6761 59 18.1727 55.892 12.6404 50.3596C7.10803 44.8273 4 37.3239 4 29.5C4 21.6761 7.10803 14.1727 12.6404 8.64035C18.1727 3.10803 25.6761 0 33.5 0C41.3239 0 48.8273 3.10803 54.3596 8.64035C59.892 14.1727 63 21.6761 63 29.5ZM23.7429 17.1321C23.3967 16.7859 22.9271 16.5914 22.4375 16.5914C21.9479 16.5914 21.4783 16.7859 21.1321 17.1321C20.7859 17.4783 20.5914 17.9479 20.5914 18.4375C20.5914 18.9271 20.7859 19.3967 21.1321 19.7429L30.8929 29.5L21.1321 39.2571C20.9607 39.4286 20.8247 39.6321 20.7319 39.856C20.6392 40.08 20.5914 40.3201 20.5914 40.5625C20.5914 40.8049 20.6392 41.045 20.7319 41.269C20.8247 41.4929 20.9607 41.6964 21.1321 41.8679C21.4783 42.2141 21.9479 42.4086 22.4375 42.4086C22.6799 42.4086 22.92 42.3608 23.144 42.2681C23.3679 42.1753 23.5715 42.0393 23.7429 41.8679L33.5 32.1071L43.2571 41.8679C43.4286 42.0393 43.6321 42.1753 43.856 42.2681C44.08 42.3608 44.3201 42.4086 44.5625 42.4086C44.8049 42.4086 45.045 42.3608 45.269 42.2681C45.4929 42.1753 45.6964 42.0393 45.8679 41.8679C46.0393 41.6964 46.1753 41.4929 46.2681 41.269C46.3608 41.045 46.4086 40.8049 46.4086 40.5625C46.4086 40.3201 46.3608 40.08 46.2681 39.856C46.1753 39.6321 46.0393 39.4286 45.8679 39.2571L36.1071 29.5L45.8679 19.7429C46.0393 19.5715 46.1753 19.3679 46.2681 19.144C46.3608 18.92 46.4086 18.6799 46.4086 18.4375C46.4086 18.1951 46.3608 17.955 46.2681 17.731C46.1753 17.5071 46.0393 17.3035 45.8679 17.1321C45.6964 16.9607 45.4929 16.8247 45.269 16.7319C45.045 16.6392 44.8049 16.5914 44.5625 16.5914C44.3201 16.5914 44.08 16.6392 43.856 16.7319C43.6321 16.8247 43.4286 16.9607 43.2571 17.1321L33.5 26.8929L23.7429 17.1321Z" fill="#FF0000"/>
</g>
<defs>
<filter id="filter0_d_2246_1772" x="0" y="0" width="67" height="67" filterUnits="userSpaceOnUse" color-interpolation-filters="sRGB">
<feFlood flood-opacity="0" result="BackgroundImageFix"/>
<feColorMatrix in="SourceAlpha" type="matrix" values="0 0 0 0 0 0 0 0 0 0 0 0 0 0 0 0 0 0 127 0" result="hardAlpha"/>
<feOffset dy="4"/>
<feGaussianBlur stdDeviation="2"/>
<feComposite in2="hardAlpha" operator="out"/>
<feColorMatrix type="matrix" values="0 0 0 0 0 0 0 0 0 0 0 0 0 0 0 0 0 0 0.25 0"/>
<feBlend mode="normal" in2="BackgroundImageFix" result="effect1_dropShadow_2246_1772"/>
<feBlend mode="normal" in="SourceGraphic" in2="effect1_dropShadow_2246_1772" result="shape"/>
</filter>
</defs>
</svg>
