<svg width="67" height="67" viewBox="0 0 67 67" fill="none" xmlns="http://www.w3.org/2000/svg">
<g filter="url(#filter0_d_2246_1771)">
<path d="M63 29.5C63 37.3239 59.892 44.8273 54.3596 50.3596C48.8273 55.892 41.3239 59 33.5 59C25.6761 59 18.1727 55.892 12.6404 50.3596C7.10803 44.8273 4 37.3239 4 29.5C4 21.6761 7.10803 14.1727 12.6404 8.64035C18.1727 3.10803 25.6761 0 33.5 0C41.3239 0 48.8273 3.10803 54.3596 8.64035C59.892 14.1727 63 21.6761 63 29.5ZM48.3606 18.3269C48.0972 18.0644 47.7836 17.8577 47.4385 17.7192C47.0934 17.5807 46.7239 17.5133 46.3521 17.5208C45.9804 17.5284 45.6139 17.6109 45.2747 17.7633C44.9356 17.9157 44.6306 18.135 44.3781 18.408L31.5714 34.7252L23.8535 27.0036C23.3292 26.515 22.6358 26.2491 21.9193 26.2617C21.2028 26.2744 20.5192 26.5646 20.0125 27.0713C19.5058 27.578 19.2156 28.2617 19.2029 28.9781C19.1903 29.6946 19.4562 30.388 19.9447 30.9123L29.7019 40.6731C29.9647 40.9355 30.2777 41.1422 30.6222 41.281C30.9667 41.4198 31.3356 41.4878 31.7069 41.4809C32.0783 41.474 32.4444 41.3924 32.7835 41.241C33.1226 41.0895 33.4277 40.8713 33.6807 40.5994L48.4012 22.1987C48.903 21.677 49.1803 20.9792 49.1734 20.2553C49.1665 19.5314 48.876 18.839 48.3643 18.3269H48.3606Z" fill="#39D71F"/>
</g>
<defs>
<filter id="filter0_d_2246_1771" x="0" y="0" width="67" height="67" filterUnits="userSpaceOnUse" color-interpolation-filters="sRGB">
<feFlood flood-opacity="0" result="BackgroundImageFix"/>
<feColorMatrix in="SourceAlpha" type="matrix" values="0 0 0 0 0 0 0 0 0 0 0 0 0 0 0 0 0 0 127 0" result="hardAlpha"/>
<feOffset dy="4"/>
<feGaussianBlur stdDeviation="2"/>
<feComposite in2="hardAlpha" operator="out"/>
<feColorMatrix type="matrix" values="0 0 0 0 0 0 0 0 0 0 0 0 0 0 0 0 0 0 0.25 0"/>
<feBlend mode="normal" in2="BackgroundImageFix" result="effect1_dropShadow_2246_1771"/>
<feBlend mode="normal" in="SourceGraphic" in2="effect1_dropShadow_2246_1771" result="shape"/>
</filter>
</defs>
</svg>
