<?xml version="1.0" encoding="iso-8859-1"?>
<!-- Uploaded to: SVG Repo, www.svgrepo.com, Generator: SVG Repo Mixer Tools -->
<svg fill="#000000" height="800px" width="800px" version="1.1" id="Layer_1" xmlns="http://www.w3.org/2000/svg" xmlns:xlink="http://www.w3.org/1999/xlink" 
	 viewBox="0 0 512 512" xml:space="preserve">
<g>
	<g>
		<path d="M490.667,0H21.333C9.552,0,0,9.551,0,21.333v469.333C0,502.449,9.552,512,21.333,512h469.333
			c11.782,0,21.333-9.551,21.333-21.333V21.333C512,9.551,502.45,0,490.667,0z M469.334,469.333L469.334,469.333H42.667V42.667
			h426.667V469.333z"/>
	</g>
</g>
<g>
	<g>
		<path d="M185.753,326.248L115.503,256l70.248-70.248c8.331-8.331,8.331-21.839,0-30.17s-21.839-8.331-30.17,0l-85.333,85.333
			c-8.331,8.331-8.331,21.839,0,30.17l85.334,85.333c8.331,8.331,21.839,8.331,30.17,0S194.083,334.579,185.753,326.248z"/>
	</g>
</g>
<g>
	<g>
		<path d="M441.752,240.915l-85.333-85.333c-8.331-8.331-21.839-8.331-30.17,0c-8.331,8.331-8.331,21.839,0,30.17L396.497,256
			l-70.248,70.248c-8.332,8.332-8.332,21.839-0.001,30.17s21.839,8.331,30.17,0l85.333-85.333
			C450.083,262.754,450.083,249.246,441.752,240.915z"/>
	</g>
</g>
<g>
	<g>
		<path d="M280.841,106.957c-11.622-1.937-22.613,5.914-24.55,17.536l-42.667,256c-1.936,11.622,5.915,22.613,17.536,24.55
			c11.622,1.937,22.613-5.914,24.55-17.536l42.667-256C300.314,119.885,292.463,108.894,280.841,106.957z"/>
	</g>
</g>
</svg>