<svg width="28" height="28" viewBox="0 0 28 28" fill="none" xmlns="http://www.w3.org/2000/svg">
<path d="M0.875 17.325C1.10706 17.325 1.32962 17.4171 1.49372 17.5812C1.65781 17.7453 1.75 17.9679 1.75 18.2V22.575C1.75 23.0391 1.93437 23.4842 2.26256 23.8124C2.59075 24.1406 3.03587 24.325 3.5 24.325H24.5C24.9641 24.325 25.4092 24.1406 25.7374 23.8124C26.0656 23.4842 26.25 23.0391 26.25 22.575V18.2C26.25 17.9679 26.3422 17.7453 26.5063 17.5812C26.6704 17.4171 26.8929 17.325 27.125 17.325C27.3571 17.325 27.5796 17.4171 27.7437 17.5812C27.9078 17.7453 28 17.9679 28 18.2V22.575C28 23.5032 27.6313 24.3934 26.9749 25.0498C26.3185 25.7062 25.4283 26.075 24.5 26.075H3.5C2.57174 26.075 1.6815 25.7062 1.02513 25.0498C0.368749 24.3934 0 23.5032 0 22.575V18.2C0 17.9679 0.0921872 17.7453 0.256282 17.5812C0.420376 17.4171 0.642936 17.325 0.875 17.325Z" fill="white"/>
<path d="M13.3806 20.7445C13.4619 20.826 13.5585 20.8906 13.6648 20.9347C13.7711 20.9789 13.885 21.0016 14.0001 21.0016C14.1152 21.0016 14.2292 20.9789 14.3355 20.9347C14.4418 20.8906 14.5383 20.826 14.6196 20.7445L19.8696 15.4945C20.0339 15.3302 20.1262 15.1074 20.1262 14.875C20.1262 14.6426 20.0339 14.4198 19.8696 14.2555C19.7053 14.0912 19.4825 13.9989 19.2501 13.9989C19.0178 13.9989 18.7949 14.0912 18.6306 14.2555L14.8751 18.0128V2.625C14.8751 2.39294 14.7829 2.17038 14.6188 2.00628C14.4548 1.84219 14.2322 1.75 14.0001 1.75C13.7681 1.75 13.5455 1.84219 13.3814 2.00628C13.2173 2.17038 13.1251 2.39294 13.1251 2.625V18.0128L9.36963 14.2555C9.20533 14.0912 8.98249 13.9989 8.75013 13.9989C8.51777 13.9989 8.29493 14.0912 8.13063 14.2555C7.96633 14.4198 7.87402 14.6426 7.87402 14.875C7.87402 15.1074 7.96633 15.3302 8.13063 15.4945L13.3806 20.7445Z" fill="white"/>
</svg>
