<svg width="41" height="42" viewBox="0 0 41 42" fill="none" xmlns="http://www.w3.org/2000/svg">
<path d="M18.5703 29.2425L6.28056 14.8523C4.83019 13.1591 6.00894 10.5 8.21013 10.5H32.7896C33.2822 10.4996 33.7646 10.6446 34.1788 10.9177C34.593 11.1909 34.9216 11.5805 35.1252 12.0401C35.3288 12.4996 35.3988 13.0095 35.3268 13.5087C35.2548 14.0079 35.0438 14.4753 34.7192 14.8549L22.4294 29.2399C22.1889 29.5218 21.8923 29.7478 21.5595 29.9026C21.2267 30.0575 20.8654 30.1376 20.4999 30.1376C20.1344 30.1376 19.7731 30.0575 19.4403 29.9026C19.1075 29.7478 18.8108 29.5218 18.5703 29.2399V29.2425Z" fill="#E7E7E7"/>
</svg>
