<svg width="20" height="20" viewBox="0 0 20 20" fill="none" xmlns="http://www.w3.org/2000/svg">
<g clip-path="url(#clip0_2206_913)">
<path d="M11.6163 0H5C4.33696 0 3.70107 0.263392 3.23223 0.732233C2.76339 1.20107 2.5 1.83696 2.5 2.5V17.5C2.5 18.163 2.76339 18.7989 3.23223 19.2678C3.70107 19.7366 4.33696 20 5 20H15C15.663 20 16.2989 19.7366 16.7678 19.2678C17.2366 18.7989 17.5 18.163 17.5 17.5V5.88375C17.4999 5.55226 17.3682 5.23437 17.1337 5L12.5 0.36625C12.2656 0.131813 11.9477 7.07968e-05 11.6163 0ZM11.875 4.375V1.875L15.625 5.625H13.125C12.7935 5.625 12.4755 5.4933 12.2411 5.25888C12.0067 5.02446 11.875 4.70652 11.875 4.375ZM8.3075 9.5575C8.36561 9.49939 8.4346 9.45329 8.51052 9.42185C8.58644 9.3904 8.66782 9.37421 8.75 9.37421C8.83218 9.37421 8.91356 9.3904 8.98948 9.42185C9.0654 9.45329 9.13439 9.49939 9.1925 9.5575C9.25061 9.61561 9.29671 9.6846 9.32815 9.76052C9.3596 9.83644 9.37579 9.91782 9.37579 10C9.37579 10.0822 9.3596 10.1636 9.32815 10.2395C9.29671 10.3154 9.25061 10.3844 9.1925 10.4425L7.13375 12.5L9.1925 14.5575C9.30986 14.6749 9.37579 14.834 9.37579 15C9.37579 15.166 9.30986 15.3251 9.1925 15.4425C9.07514 15.5599 8.91597 15.6258 8.75 15.6258C8.58403 15.6258 8.42486 15.5599 8.3075 15.4425L5.8075 12.9425C5.7493 12.8844 5.70312 12.8155 5.67161 12.7395C5.6401 12.6636 5.62388 12.5822 5.62388 12.5C5.62388 12.4178 5.6401 12.3364 5.67161 12.2605C5.70312 12.1845 5.7493 12.1156 5.8075 12.0575L8.3075 9.5575ZM11.6925 9.5575L14.1925 12.0575C14.2507 12.1156 14.2969 12.1845 14.3284 12.2605C14.3599 12.3364 14.3761 12.4178 14.3761 12.5C14.3761 12.5822 14.3599 12.6636 14.3284 12.7395C14.2969 12.8155 14.2507 12.8844 14.1925 12.9425L11.6925 15.4425C11.5751 15.5599 11.416 15.6258 11.25 15.6258C11.084 15.6258 10.9249 15.5599 10.8075 15.4425C10.6901 15.3251 10.6242 15.166 10.6242 15C10.6242 14.834 10.6901 14.6749 10.8075 14.5575L12.8663 12.5L10.8075 10.4425C10.7494 10.3844 10.7033 10.3154 10.6718 10.2395C10.6404 10.1636 10.6242 10.0822 10.6242 10C10.6242 9.91782 10.6404 9.83644 10.6718 9.76052C10.7033 9.6846 10.7494 9.61561 10.8075 9.5575C10.8656 9.49939 10.9346 9.45329 11.0105 9.42185C11.0864 9.3904 11.1678 9.37421 11.25 9.37421C11.3322 9.37421 11.4136 9.3904 11.4895 9.42185C11.5654 9.45329 11.6344 9.49939 11.6925 9.5575Z" fill="#FC6736"/>
</g>
<defs>
<clipPath id="clip0_2206_913">
<rect width="20" height="20" fill="white"/>
</clipPath>
</defs>
</svg>
