<svg width="20" height="20" viewBox="0 0 20 20" fill="none" xmlns="http://www.w3.org/2000/svg">
<path d="M6.90399 15.53C7.07899 15.4267 7.27024 15.3275 7.47774 15.2325C7.30226 15.4937 7.11455 15.7465 6.91524 15.99C6.56524 16.4113 6.29274 16.635 6.12149 16.705L6.07774 16.72C6.06536 16.7026 6.05449 16.6842 6.04524 16.665C5.97524 16.5275 5.97774 16.395 6.09524 16.215C6.22774 16.0088 6.49399 15.7725 6.90399 15.53ZM9.97274 13.4713C9.82441 13.5021 9.67607 13.5346 9.52774 13.5688C9.74815 13.1371 9.95656 12.6994 10.1527 12.2563C10.3503 12.6224 10.563 12.9803 10.7902 13.3288C10.5186 13.3688 10.2461 13.4163 9.97274 13.4713ZM13.129 14.645C12.9352 14.488 12.7535 14.3167 12.5852 14.1325C12.8719 14.1383 13.1269 14.1608 13.3502 14.2C13.7465 14.2713 13.9327 14.3838 13.9977 14.4613C14.0177 14.4832 14.0293 14.5116 14.0302 14.5413C14.0257 14.6294 13.9999 14.7152 13.9552 14.7913C13.9304 14.8524 13.8899 14.9058 13.8377 14.9463C13.8122 14.9628 13.7816 14.9695 13.7515 14.965C13.639 14.9613 13.429 14.8825 13.129 14.645ZM10.3477 8.71251C10.2977 9.01751 10.2127 9.36751 10.0977 9.74876C10.0555 9.60596 10.0184 9.46171 9.98649 9.31626C9.89149 8.87501 9.87774 8.52876 9.92899 8.28876C9.97649 8.06751 10.0665 7.97876 10.174 7.93501C10.2315 7.9093 10.2926 7.89244 10.3552 7.88501C10.3715 7.92251 10.3902 8.00001 10.3952 8.13251C10.4019 8.28501 10.3861 8.47876 10.3477 8.71376V8.71251Z" fill="#1A718B"/>
<path fill-rule="evenodd" clip-rule="evenodd" d="M5 0H11.6163C11.9477 7.07968e-05 12.2656 0.131813 12.5 0.36625L17.1337 5C17.3682 5.23437 17.4999 5.55226 17.5 5.88375V17.5C17.5 18.163 17.2366 18.7989 16.7678 19.2678C16.2989 19.7366 15.663 20 15 20H5C4.33696 20 3.70107 19.7366 3.23223 19.2678C2.76339 18.7989 2.5 18.163 2.5 17.5V2.5C2.5 1.83696 2.76339 1.20107 3.23223 0.732233C3.70107 0.263392 4.33696 0 5 0ZM11.875 1.875V4.375C11.875 4.70652 12.0067 5.02446 12.2411 5.25888C12.4755 5.4933 12.7935 5.625 13.125 5.625H15.625L11.875 1.875ZM5.20625 17.085C5.31875 17.31 5.49375 17.5138 5.75375 17.6087C6.0125 17.7025 6.26875 17.6588 6.47875 17.5713C6.87625 17.4088 7.2725 17.0262 7.63625 16.5887C8.0525 16.0875 8.49 15.43 8.9125 14.7013C9.72824 14.4598 10.5635 14.29 11.4087 14.1937C11.7837 14.6725 12.1712 15.085 12.5462 15.3813C12.8962 15.6562 13.3 15.885 13.7137 15.9025C13.9391 15.9133 14.1621 15.853 14.3512 15.73C14.545 15.6037 14.6888 15.4213 14.7937 15.21C14.9062 14.9838 14.975 14.7475 14.9662 14.5062C14.9587 14.2683 14.8706 14.04 14.7162 13.8587C14.4338 13.5212 13.9712 13.3587 13.5162 13.2775C12.9643 13.1925 12.4043 13.1715 11.8475 13.215C11.3776 12.5502 10.9676 11.8449 10.6225 11.1075C10.935 10.2825 11.1687 9.5025 11.2725 8.865C11.3175 8.5925 11.3413 8.3325 11.3325 8.0975C11.3309 7.86424 11.2766 7.63437 11.1737 7.425C11.1144 7.30947 11.0302 7.20859 10.927 7.12967C10.8239 7.05076 10.7045 6.99579 10.5775 6.96875C10.325 6.915 10.065 6.96875 9.82625 7.065C9.355 7.2525 9.10625 7.6525 9.0125 8.09375C8.92125 8.51875 8.9625 9.01375 9.07 9.51375C9.18 10.0212 9.3675 10.5738 9.6075 11.1325C9.22271 12.0869 8.77937 13.0165 8.28 13.9163C7.63593 14.1193 7.01501 14.3895 6.4275 14.7225C5.965 14.9975 5.55375 15.3225 5.30625 15.7062C5.04375 16.1137 4.9625 16.5988 5.20625 17.085Z" fill="#1A718B"/>
</svg>
