<svg width="53" height="53" viewBox="0 0 53 53" fill="none" xmlns="http://www.w3.org/2000/svg">
<g clip-path="url(#clip0_2106_604)">
<path d="M26.5 53C33.5282 53 40.2686 50.208 45.2383 45.2383C50.208 40.2686 53 33.5282 53 26.5C53 19.4718 50.208 12.7314 45.2383 7.76167C40.2686 2.79196 33.5282 0 26.5 0C19.4718 0 12.7314 2.79196 7.76167 7.76167C2.79196 12.7314 0 19.4718 0 26.5C0 33.5282 2.79196 40.2686 7.76167 45.2383C12.7314 50.208 19.4718 53 26.5 53ZM11.5938 16.5625H41.4062C41.8455 16.5625 42.2668 16.737 42.5774 17.0476C42.888 17.3582 43.0625 17.7795 43.0625 18.2188C43.0625 18.658 42.888 19.0793 42.5774 19.3899C42.2668 19.7005 41.8455 19.875 41.4062 19.875H11.5938C11.1545 19.875 10.7332 19.7005 10.4226 19.3899C10.112 19.0793 9.9375 18.658 9.9375 18.2188C9.9375 17.7795 10.112 17.3582 10.4226 17.0476C10.7332 16.737 11.1545 16.5625 11.5938 16.5625ZM16.5625 28.1562C16.5625 27.717 16.737 27.2957 17.0476 26.9851C17.3582 26.6745 17.7795 26.5 18.2188 26.5H34.7812C35.2205 26.5 35.6418 26.6745 35.9524 26.9851C36.263 27.2957 36.4375 27.717 36.4375 28.1562C36.4375 28.5955 36.263 29.0168 35.9524 29.3274C35.6418 29.638 35.2205 29.8125 34.7812 29.8125H18.2188C17.7795 29.8125 17.3582 29.638 17.0476 29.3274C16.737 29.0168 16.5625 28.5955 16.5625 28.1562ZM23.1875 38.0938C23.1875 37.6545 23.362 37.2332 23.6726 36.9226C23.9832 36.612 24.4045 36.4375 24.8438 36.4375H28.1562C28.5955 36.4375 29.0168 36.612 29.3274 36.9226C29.638 37.2332 29.8125 37.6545 29.8125 38.0938C29.8125 38.533 29.638 38.9543 29.3274 39.2649C29.0168 39.5755 28.5955 39.75 28.1562 39.75H24.8438C24.4045 39.75 23.9832 39.5755 23.6726 39.2649C23.362 38.9543 23.1875 38.533 23.1875 38.0938Z" fill="#F29319"/>
</g>
<defs>
<clipPath id="clip0_2106_604">
<rect width="53" height="53" fill="white"/>
</clipPath>
</defs>
</svg>
