<svg width="99" height="132" viewBox="0 0 99 132" fill="none" xmlns="http://www.w3.org/2000/svg">
<path fill-rule="evenodd" clip-rule="evenodd" d="M1.10442e-06 127.872V16.4996C1.10442e-06 12.1237 1.73839 7.92691 4.83274 4.83263C7.92709 1.73835 12.1239 0 16.5 0L82.5 0C86.8761 0 91.0729 1.73835 94.1673 4.83263C97.2616 7.92691 99 12.1237 99 16.4996V127.872C99.0005 128.588 98.8145 129.292 98.4603 129.915C98.106 130.538 97.5957 131.057 96.9797 131.423C96.3636 131.788 95.6629 131.987 94.9467 131.999C94.2305 132.012 93.5234 131.838 92.895 131.494L49.5 107.817L6.105 131.494C5.47659 131.838 4.76948 132.012 4.05327 131.999C3.33705 131.987 2.63643 131.788 2.02036 131.423C1.40429 131.057 0.894008 130.538 0.539753 129.915C0.185497 129.292 -0.000522999 128.588 1.10442e-06 127.872ZM73.0455 48.2944C73.8201 47.5199 74.2552 46.4693 74.2552 45.374C74.2552 44.2786 73.8201 43.2281 73.0455 42.4535C72.2709 41.679 71.2204 41.2438 70.125 41.2438C69.0296 41.2438 67.9791 41.679 67.2045 42.4535L45.375 64.2908L35.9205 54.8282C35.537 54.4447 35.0817 54.1405 34.5806 53.933C34.0795 53.7254 33.5424 53.6186 33 53.6186C32.4576 53.6186 31.9205 53.7254 31.4194 53.933C30.9183 54.1405 30.463 54.4447 30.0795 54.8282C29.696 55.2118 29.3917 55.6671 29.1842 56.1682C28.9766 56.6692 28.8698 57.2063 28.8698 57.7487C28.8698 58.2911 28.9766 58.8281 29.1842 59.3292C29.3917 59.8303 29.696 60.2856 30.0795 60.6691L42.4545 73.0438C42.8377 73.428 43.2929 73.7327 43.794 73.9407C44.2952 74.1486 44.8324 74.2557 45.375 74.2557C45.9176 74.2557 46.4548 74.1486 46.956 73.9407C47.4571 73.7327 47.9123 73.428 48.2955 73.0438L73.0455 48.2944Z" fill="#4EB933"/>
</svg>
