<svg width="140" height="140" viewBox="-30 -30 200 200" fill="none" xmlns="http://www.w3.org/2000/svg">
<g clip-path="url(#clip0_2243_1505)">
<path d="M96.25 52.5C96.25 59.4619 93.4844 66.1387 88.5616 71.0616C83.6387 75.9844 76.9619 78.75 70 78.75C63.0381 78.75 56.3613 75.9844 51.4384 71.0616C46.5156 66.1387 43.75 59.4619 43.75 52.5C43.75 45.5381 46.5156 38.8613 51.4384 33.9384C56.3613 29.0156 63.0381 26.25 70 26.25C76.9619 26.25 83.6387 29.0156 88.5616 33.9384C93.4844 38.8613 96.25 45.5381 96.25 52.5Z" fill="white"/>
<path fill-rule="evenodd" clip-rule="evenodd" d="M0 70C0 51.4348 7.37498 33.6301 20.5025 20.5025C33.6301 7.37498 51.4348 0 70 0C88.5652 0 106.37 7.37498 119.497 20.5025C132.625 33.6301 140 51.4348 140 70C140 88.5652 132.625 106.37 119.497 119.497C106.37 132.625 88.5652 140 70 140C51.4348 140 33.6301 132.625 20.5025 119.497C7.37498 106.37 0 88.5652 0 70ZM70 8.75C58.4656 8.75061 47.1657 12.0082 37.401 18.1477C27.6363 24.2873 19.8037 33.0593 14.8047 43.4542C9.80565 53.849 7.84338 65.4442 9.14374 76.9051C10.4441 88.366 14.9542 99.2268 22.155 108.237C28.3675 98.2275 42.0438 87.5 70 87.5C97.9563 87.5 111.624 98.2188 117.845 108.237C125.046 99.2268 129.556 88.366 130.856 76.9051C132.157 65.4442 130.194 53.849 125.195 43.4542C120.196 33.0593 112.364 24.2873 102.599 18.1477C92.8343 12.0082 81.5344 8.75061 70 8.75Z" fill="white"/>
</g>
<defs>
<clipPath id="clip0_2243_1505">
<rect width="140" height="140" fill="white"/>
</clipPath>
</defs>
</svg>
