<svg width="67" height="67" viewBox="0 0 67 67" fill="none" xmlns="http://www.w3.org/2000/svg">
<g clip-path="url(#clip0_2106_588)">
<path d="M46.0625 25.125C46.0625 28.4568 44.739 31.6521 42.383 34.008C40.0271 36.364 36.8318 37.6875 33.5 37.6875C30.1682 37.6875 26.9729 36.364 24.617 34.008C22.261 31.6521 20.9375 28.4568 20.9375 25.125C20.9375 21.7932 22.261 18.5979 24.617 16.242C26.9729 13.886 30.1682 12.5625 33.5 12.5625C36.8318 12.5625 40.0271 13.886 42.383 16.242C44.739 18.5979 46.0625 21.7932 46.0625 25.125Z" fill="black"/>
<path fill-rule="evenodd" clip-rule="evenodd" d="M0 33.5C0 24.6152 3.52945 16.0944 9.81192 9.81192C16.0944 3.52945 24.6152 0 33.5 0C42.3848 0 50.9056 3.52945 57.1881 9.81192C63.4705 16.0944 67 24.6152 67 33.5C67 42.3848 63.4705 50.9056 57.1881 57.1881C50.9056 63.4705 42.3848 67 33.5 67C24.6152 67 16.0944 63.4705 9.81192 57.1881C3.52945 50.9056 0 42.3848 0 33.5ZM33.5 4.1875C27.9799 4.18779 22.5722 5.74677 17.8991 8.68499C13.226 11.6232 9.4775 15.8213 7.0851 20.7959C4.6927 25.7706 3.75362 31.3197 4.37593 36.8046C4.99824 42.2895 7.15666 47.4871 10.6027 51.7994C13.5759 47.0089 20.1209 41.875 33.5 41.875C46.8791 41.875 53.4199 47.0047 56.3973 51.7994C59.8433 47.4871 62.0018 42.2895 62.6241 36.8046C63.2464 31.3197 62.3073 25.7706 59.9149 20.7959C57.5225 15.8213 53.774 11.6232 49.1009 8.68499C44.4278 5.74677 39.0201 4.18779 33.5 4.1875Z" fill="black"/>
</g>
<defs>
<clipPath id="clip0_2106_588">
<rect width="67" height="67" fill="white"/>
</clipPath>
</defs>
</svg>
