<svg width="28" height="28" viewBox="0 0 28 28" fill="none" xmlns="http://www.w3.org/2000/svg">
<g clip-path="url(#clip0_2198_1218)">
<path d="M0 3.5C0 2.57174 0.368749 1.6815 1.02513 1.02513C1.6815 0.368749 2.57174 0 3.5 0L24.5 0C25.4283 0 26.3185 0.368749 26.9749 1.02513C27.6313 1.6815 28 2.57174 28 3.5V24.5C28 25.4283 27.6313 26.3185 26.9749 26.9749C26.3185 27.6313 25.4283 28 24.5 28H3.5C2.57174 28 1.6815 27.6313 1.02513 26.9749C0.368749 26.3185 0 25.4283 0 24.5V3.5ZM9.625 21C9.62496 21.1687 9.67366 21.3338 9.76525 21.4754C9.85684 21.617 9.98741 21.7292 10.1413 21.7983C10.2951 21.8675 10.4656 21.8907 10.6324 21.8652C10.7991 21.8397 10.9549 21.7665 11.081 21.6545L18.956 14.6545C19.0485 14.5724 19.1226 14.4716 19.1733 14.3588C19.224 14.246 19.2503 14.1237 19.2503 14C19.2503 13.8763 19.224 13.754 19.1733 13.6412C19.1226 13.5284 19.0485 13.4276 18.956 13.3455L11.081 6.3455C10.9549 6.23351 10.7991 6.16035 10.6324 6.13483C10.4656 6.10932 10.2951 6.13254 10.1413 6.20169C9.98741 6.27084 9.85684 6.38299 9.76525 6.52462C9.67366 6.66625 9.62496 6.83133 9.625 7V21Z" fill="#4EB933"/>
</g>
<defs>
<clipPath id="clip0_2198_1218">
<rect width="28" height="28" fill="white"/>
</clipPath>
</defs>
</svg>
