<svg width="41" height="42" viewBox="0 0 41 42" fill="none" xmlns="http://www.w3.org/2000/svg">
<path d="M18.5703 12.7575L6.28056 27.1477C4.83019 28.8409 6.00894 31.5 8.21013 31.5H32.7896C33.2822 31.5004 33.7646 31.3554 34.1788 31.0823C34.593 30.8091 34.9216 30.4195 35.1252 29.9599C35.3288 29.5004 35.3988 28.9905 35.3268 28.4913C35.2548 27.9921 35.0438 27.5247 34.7192 27.1451L22.4294 12.7601C22.1889 12.4782 21.8923 12.2522 21.5595 12.0974C21.2267 11.9425 20.8654 11.8624 20.4999 11.8624C20.1344 11.8624 19.7731 11.9425 19.4403 12.0974C19.1075 12.2522 18.8108 12.4782 18.5703 12.7601V12.7575Z" fill="#E7E7E7"/>
</svg>
