<svg width="28" height="28" viewBox="0 0 28 28" fill="none" xmlns="http://www.w3.org/2000/svg">
<path fill-rule="evenodd" clip-rule="evenodd" d="M14 0C11.6904 0.0072424 9.45959 0.840236 7.7105 2.3485C6.37 3.5035 5.39875 5.0085 5.1485 6.51875C2.2155 7.16625 0 9.72125 0 12.8065C0 16.3905 2.989 19.25 6.61675 19.25H13.125V9.98725L9.3695 13.7445C9.2052 13.9088 8.98236 14.0011 8.75 14.0011C8.51764 14.0011 8.2948 13.9088 8.1305 13.7445C7.9662 13.5802 7.87389 13.3574 7.87389 13.125C7.87389 12.8926 7.9662 12.6698 8.1305 12.5055L13.3805 7.2555C13.4618 7.17401 13.5583 7.10936 13.6646 7.06525C13.7709 7.02114 13.8849 6.99844 14 6.99844C14.1151 6.99844 14.2291 7.02114 14.3354 7.06525C14.4417 7.10936 14.5382 7.17401 14.6195 7.2555L19.8695 12.5055C20.0338 12.6698 20.1261 12.8926 20.1261 13.125C20.1261 13.3574 20.0338 13.5802 19.8695 13.7445C19.7052 13.9088 19.4824 14.0011 19.25 14.0011C19.0176 14.0011 18.7948 13.9088 18.6305 13.7445L14.875 9.98725V19.25H22.204C25.3785 19.25 28 16.7475 28 13.6027C28 10.7397 25.8265 8.407 23.0405 8.01325C22.6153 3.49825 18.7075 0 14 0ZM13.125 25.375V19.25H14.875V25.375C14.875 25.6071 14.7828 25.8296 14.6187 25.9937C14.4546 26.1578 14.2321 26.25 14 26.25C13.7679 26.25 13.5454 26.1578 13.3813 25.9937C13.2172 25.8296 13.125 25.6071 13.125 25.375Z" fill="white"/>
</svg>
