<svg width="14" height="14" viewBox="0 0 14 14" fill="none" xmlns="http://www.w3.org/2000/svg">
<path d="M1.87781 2.49731C1.83714 2.45664 1.80487 2.40835 1.78286 2.3552C1.76084 2.30205 1.74951 2.24509 1.74951 2.18756C1.74951 2.13004 1.76084 2.07308 1.78286 2.01993C1.80487 1.96678 1.83714 1.91849 1.87781 1.87781C1.91849 1.83714 1.96678 1.80487 2.01993 1.78286C2.07308 1.76084 2.13004 1.74951 2.18756 1.74951C2.24509 1.74951 2.30205 1.76084 2.3552 1.78286C2.40835 1.80487 2.45664 1.83714 2.49731 1.87781L7.00006 6.38144L11.5028 1.87781C11.5435 1.83714 11.5918 1.80487 11.6449 1.78286C11.6981 1.76084 11.755 1.74951 11.8126 1.74951C11.8701 1.74951 11.9271 1.76084 11.9802 1.78286C12.0333 1.80487 12.0816 1.83714 12.1223 1.87781C12.163 1.91849 12.1953 1.96678 12.2173 2.01993C12.2393 2.07308 12.2506 2.13004 12.2506 2.18756C12.2506 2.24509 12.2393 2.30205 12.2173 2.3552C12.1953 2.40835 12.163 2.45664 12.1223 2.49731L7.61869 7.00006L12.1223 11.5028C12.163 11.5435 12.1953 11.5918 12.2173 11.6449C12.2393 11.6981 12.2506 11.755 12.2506 11.8126C12.2506 11.8701 12.2393 11.9271 12.2173 11.9802C12.1953 12.0333 12.163 12.0816 12.1223 12.1223C12.0816 12.163 12.0333 12.1953 11.9802 12.2173C11.9271 12.2393 11.8701 12.2506 11.8126 12.2506C11.755 12.2506 11.6981 12.2393 11.6449 12.2173C11.5918 12.1953 11.5435 12.163 11.5028 12.1223L7.00006 7.61869L2.49731 12.1223C2.45664 12.163 2.40835 12.1953 2.3552 12.2173C2.30205 12.2393 2.24509 12.2506 2.18756 12.2506C2.13004 12.2506 2.07308 12.2393 2.01993 12.2173C1.96678 12.1953 1.91849 12.163 1.87781 12.1223C1.83714 12.0816 1.80487 12.0333 1.78286 11.9802C1.76084 11.9271 1.74951 11.8701 1.74951 11.8126C1.74951 11.755 1.76084 11.6981 1.78286 11.6449C1.80487 11.5918 1.83714 11.5435 1.87781 11.5028L6.38144 7.00006L1.87781 2.49731Z" fill="black"/>
</svg>
