<svg width="540" height="614" viewBox="0 0 540 614" fill="none" xmlns="http://www.w3.org/2000/svg">
<g clip-path="url(#clip0_2058_761)">
<path d="M-98.4375 120.367C-60.7697 104.619 -6.75787 87.6362 45.7643 82.3584C102.372 76.655 150.383 85.0399 178.219 114.365V529.18C138.423 506.621 87.9863 503.514 41.4654 508.196C-8.7583 513.304 -59.4077 527.818 -98.4375 542.714V120.367ZM220.781 114.365C248.617 85.0399 296.628 76.655 353.236 82.3584C405.758 87.6362 459.77 104.619 497.438 120.367V542.714C458.365 527.818 407.758 513.261 357.535 508.239C310.971 503.514 260.577 506.579 220.781 529.18V114.365ZM199.5 75.8889C157.576 39.8385 96.7967 34.4756 41.4654 40.0087C-22.9742 46.5208 -88.0097 68.6107 -128.529 87.0403C-132.247 88.7312 -135.4 91.4563 -137.611 94.8902C-139.822 98.3241 -140.999 102.322 -141 106.406V574.594C-140.999 578.154 -140.105 581.658 -138.399 584.783C-136.693 587.909 -134.23 590.556 -131.236 592.483C-128.241 594.41 -124.812 595.555 -121.26 595.813C-117.709 596.071 -114.15 595.434 -110.908 593.96C-73.3682 576.935 -12.8869 556.462 45.7217 550.546C105.692 544.502 155.959 554.249 182.901 587.873C184.895 590.359 187.422 592.365 190.295 593.743C193.168 595.121 196.313 595.837 199.5 595.837C202.687 595.837 205.832 595.121 208.705 593.743C211.578 592.365 214.105 590.359 216.099 587.873C243.041 554.249 293.308 544.502 353.236 550.546C411.887 556.462 472.411 576.935 509.908 593.96C513.15 595.434 516.709 596.071 520.26 595.813C523.812 595.555 527.241 594.41 530.236 592.483C533.23 590.556 535.693 587.909 537.399 584.783C539.105 581.658 539.999 578.154 540 574.594V106.406C539.999 102.322 538.822 98.3241 536.611 94.8902C534.4 91.4563 531.247 88.7312 527.529 87.0403C487.01 68.6107 421.974 46.5208 357.535 40.0087C302.203 34.433 241.424 39.8385 199.5 75.8889Z" fill="white" fill-opacity="0.5"/>
</g>
<defs>
<clipPath id="clip0_2058_761">
<rect width="681" height="681" fill="white" transform="translate(-141)"/>
</clipPath>
</defs>
</svg>
