<svg width="625" height="699" viewBox="0 0 625 699" fill="none" xmlns="http://www.w3.org/2000/svg">
<path d="M242 383C280.092 383 316.623 367.868 343.558 340.933C370.493 313.998 385.625 277.467 385.625 239.375C385.625 201.283 370.493 164.752 343.558 137.817C316.623 110.882 280.092 95.75 242 95.75C203.908 95.75 167.377 110.882 140.442 137.817C113.507 164.752 98.375 201.283 98.375 239.375C98.375 277.467 113.507 313.998 140.442 340.933C167.377 367.868 203.908 383 242 383ZM337.75 239.375C337.75 264.769 327.662 289.124 309.705 307.08C291.749 325.037 267.394 335.125 242 335.125C216.606 335.125 192.251 325.037 174.295 307.08C156.338 289.124 146.25 264.769 146.25 239.375C146.25 213.981 156.338 189.626 174.295 171.67C192.251 153.713 216.606 143.625 242 143.625C267.394 143.625 291.749 153.713 309.705 171.67C327.662 189.626 337.75 213.981 337.75 239.375ZM529.25 622.375C529.25 670.25 481.375 670.25 481.375 670.25H2.625C2.625 670.25 -45.25 670.25 -45.25 622.375C-45.25 574.5 2.625 430.875 242 430.875C481.375 430.875 529.25 574.5 529.25 622.375ZM481.375 622.184C481.327 610.406 474.002 574.979 441.543 542.519C410.329 511.305 351.586 478.75 242 478.75C132.414 478.75 73.6715 511.305 42.457 542.519C9.99775 574.979 2.72075 610.406 2.625 622.184H481.375Z" fill="white" fill-opacity="0.5"/>
</svg>
